#!OML:ASF F:\VICON\USERDATA\INSTALL\rory3\rory3.ASF
:FULLY-SPECIFIED
:DEGREES
38
root -0.6589156970714549 17.518878537008163 2.940067950187763 4.618909162257892 2.781448861172651 1.7813848927461529
lfemur -6.035583075990207 -3.8704176265520704 -28.018949660741733
ltibia 41.637925706104426
lfoot 0.8763345465835846 -7.65005517707003
ltoes -28.20354042184028
rfemur -44.666882881902026 -3.695725342464584 21.623824060933366
rtibia 87.68014378339981
rfoot 5.184463505970754 -3.082538777510421
rtoes 8.3251054545782
lowerback 17.0790507181867 -0.5343700901897953 -3.071334129021558
upperback -0.1804110795863355 -1.0096332694428152 0.459859642804315
thorax -8.232787307965475 -0.27927515909187756 2.4770242985236384
lowerneck -19.85258969418407 -2.71246624055956 -2.572679990952584
upperneck 16.49800428707742 -3.408938434697255 2.6201899982353605
head 8.796963477569278 -1.4287360813063228 0.7524883701351077
lclavicle -6.463828596269124e-16 -4.8597083772834294e-15
lhumerus -35.259190187950765 -15.073562046847089 94.97201824580657
lradius 123.12136587009009
lwrist 45.30537634939006
lhand -32.01701547765 -1.024739578052987
lfingers 7.125019999999998
lthumb -5.411336168292755 28.349500755822774
rclavicle -6.587834876966209e-16 -4.867915062800262e-15
rhumerus -47.146088278959624 11.402237018493741 -98.13883089942928
rradius 109.88421004054113
rwrist -15.99454015272038
rhand -17.770997729628085 34.766480848762946
rfingers 7.125019999999998
rthumb 7.996751323750661 3.6718252884465525
39
root -0.648924883800231 17.740806115959504 4.005211123609954 5.144948070193664 0.40411587802216165 1.396338247237989
lfemur -3.1037690347880353 -2.523110450599699 -27.80509787181058
ltibia 37.88604159690838
lfoot 10.59505725404548 -11.701932687208018
ltoes -27.21518262805413
rfemur -45.80140715081265 -0.9985563882193764 22.529514346991725
rtibia 77.78380904929023
rfoot 3.7758684666451168 -2.7809573541661567
rtoes 6.104425839129374
lowerback 15.871828646416626 -0.5308091440291286 -2.8868580785232494
upperback -0.4742242966323127 -1.0132210831387871 0.808053646389569
thorax -8.243974366754188 -0.31046988704823447 2.6731483475162423
lowerneck -19.421997354371463 -2.4411936145435833 -2.8295385846073993
upperneck 16.93909691173206 -2.9550151563732565 2.3803941969644633
head 8.933097657175416 -1.2565467498923404 0.799694883728569
lclavicle -6.472524348158897e-16 -4.860323381998816e-15
lhumerus -35.883679116964714 -15.366048869380121 94.59039040659223
lradius 124.38183240305284
lwrist 44.677608806231085
lhand -31.79911726250673 -1.425380987745807
lfingers 7.125019999999998
lthumb -5.1821495267680895 27.868887134697115
rclavicle -6.598243022710457e-16 -4.868644040397995e-15
rhumerus -46.93116207321861 11.823095692827563 -97.64254680625726
rradius 108.95647177492044
rwrist -16.588972433424143
rhand -17.43312902677262 35.02756259809801
rfingers 7.125019999999998
rthumb 8.452337012533736 3.6110556129370828
40
root -0.6210602950389997 17.95680496412826 5.134153470120273 5.095049019150876 -1.352862541056403 1.219549301023079
lfemur 0.10221981636466282 -1.5335459236184121 -27.815660982243976
ltibia 33.74914100721261
lfoot 19.893172543472193 -14.919089682988538
ltoes -23.61299481278968
rfemur -45.3827881453914 0.429274179361522 23.117743347506277
rtibia 67.30751617145071
rfoot 2.8545429186290265 -2.163640101770727
rtoes 3.757254291023858
lowerback 15.442400684553608 -0.5805620897384801 -2.614066333086602
upperback -0.691013146436159 -1.0676783922323314 1.0660572728714666
thorax -8.013894730053511 -0.3471200067208215 2.833418417878214
lowerneck -18.94307281714239 -2.2228557211946516 -3.0585619318601194
upperneck 17.297219547594906 -2.5850740621958224 2.1278460447002403
head 8.990407871995188 -1.1275025947631008 0.8776073066608991
lclavicle -6.4872302312394e-16 -4.861363537592778e-15
lhumerus -36.47583004925015 -15.840524982952635 94.41238200033493
lradius 124.96570202516278
lwrist 41.59959419973978
lhand -31.442838285177736 -1.5332729868143662
lfingers 7.125019999999998
lthumb -4.827295726914796 27.85494578487715
rclavicle -6.581069586051639e-16 -4.8673306081759935e-15
rhumerus -46.96698238586813 12.396208608708548 -97.31646728471914
rradius 108.19704790109878
rwrist -17.12987946146498
rhand -17.186104940312934 35.445164269957615
rfingers 7.125019999999998
rthumb 8.752487003892305 3.801712359969165
41
root -0.5801845783199372 18.14560688111011 6.10527675553727 5.614591219826475 -1.6375494557976584 0.832263491960765
lfemur 2.404656809783564 -1.9104798292805119 -27.545114799699924
ltibia 30.082955034282584
lfoot 27.00110708488134 -17.083796018418994
ltoes -17.85457175903794
rfemur -44.90647965963652 0.8300038198863342 23.850451484710092
rtibia 57.162145062797705
rfoot 2.1150095610822373 -1.2426280382562922
rtoes 1.1754596531892416
lowerback 14.54625522999839 -0.8729274360339133 -1.8111618394428293
upperback -0.9070647006170273 -1.3614385409018865 1.3407672928712009
thorax -7.66926269774855 -0.47935336614828855 3.004025599322002
lowerneck -18.661728628416732 -2.126100918047471 -3.1739603868451796
upperneck 17.491816614210272 -2.3908223085327815 1.8439178917062868
head 8.989138740773088 -1.0692730876946135 0.9024766919710243
lclavicle -6.48972012278023e-16 -4.8615395894939794e-15
lhumerus -37.17715651067144 -16.50760321137134 94.37500633773188
lradius 125.12348198244742
lwrist 38.74905801719014
lhand -30.982797588302716 -1.5258221684684925
lfingers 7.125019999999998
lthumb -4.412677684400598 28.125709937122505
rclavicle -6.556582556754259e-16 -4.865633279848937e-15
rhumerus -47.21089929271929 12.986695607586444 -97.16495089452236
rradius 107.77708605461757
rwrist -17.23478350022939
rhand -17.036986681288262 35.53927200410592
rfingers 7.125019999999998
rthumb 8.959719730850535 4.2063598195250185
